<svg xmlns="http://www.w3.org/2000/svg" width="780" height="460" viewBox="0 0 780 460" role="img" aria-labelledby="t">
  <title id="t">Dev Stack: Browse dev tools and build your own stack.</title>
  <defs>
    <linearGradient id="bg" x1="0" y1="0" x2="1" y2="1"><stop offset="0" stop-color="#0a2519"/><stop offset=".6" stop-color="#06100c"/><stop offset="1" stop-color="#052016"/></linearGradient>
    <radialGradient id="glow" cx="720" cy="40" r="429" gradientUnits="userSpaceOnUse"><stop offset="0" stop-color="#1a7a55" stop-opacity=".35"/><stop offset="1" stop-color="#1a7a55" stop-opacity="0"/></radialGradient>
    <pattern id="dots" width="32" height="32" patternUnits="userSpaceOnUse"><circle cx="2" cy="2" r="1.4" fill="#3ddc97" fill-opacity=".10"/></pattern>
    <clipPath id="c"><rect width="780" height="460" rx="26"/></clipPath>
  </defs>
  <style>.arr{animation:nudge 2.4s ease-in-out infinite}@keyframes nudge{0%,100%{transform:translate(0,0)}50%{transform:translate(4px,-4px)}}</style>
  <g clip-path="url(#c)">
    <rect width="780" height="460" fill="url(#bg)"/><rect width="780" height="460" fill="url(#glow)"/>
    <rect x="429" width="351" height="460" fill="url(#dots)"/>
    <rect width="780" height="6" fill="#3ddc97" opacity=".85"/>
    <rect x="48" y="54" width="112" height="42" rx="21" fill="#0c2a1e" stroke="#2f7d5c" stroke-width="2"/><circle cx="68" cy="75" r="11" fill="#3ddc97" opacity=".25"><animate attributeName="r" values="7;14;7" dur="2s" repeatCount="indefinite"/><animate attributeName="opacity" values=".5;0;.5" dur="2s" repeatCount="indefinite"/></circle><circle cx="68" cy="75" r="6" fill="#3ddc97"/><path d="M89.3 83V69.2H92.2V80.8H99.6V83Z M103.6 83V69.2H106.4V83Z M117.9 83H115L109.9 69.2H112.9L115.8 78.1Q116 78.9 116.5 80.7L116.7 79.8L117.2 78.1L120 69.2H123Z M126.5 83V69.2H137.3V71.5H129.3V74.9H136.7V77.2H129.3V80.8H137.7V83Z" fill="#86e8bd"/><path d="M79.9 153.9Q79.9 158.6 77.8 162.3Q75.7 166 71.9 168Q68 170 63 170H50.9V137.7H63Q68.1 137.7 71.9 139.7Q75.7 141.8 77.8 145.4Q79.9 149.1 79.9 153.9ZM71.9 153.9Q71.9 149.4 69.4 146.9Q66.9 144.4 62.4 144.4H58.7V163.2H62.4Q66.9 163.2 69.4 160.8Q71.9 158.3 71.9 153.9Z M108.4 159.1H90.6Q90.7 161.4 92.1 162.7Q93.4 164 95.4 164Q98.4 164 99.5 161.5H107.9Q107.2 164 105.6 166Q103.9 168.1 101.4 169.2Q98.8 170.4 95.7 170.4Q91.9 170.4 89 168.8Q86 167.1 84.4 164.2Q82.7 161.2 82.7 157.2Q82.7 153.2 84.4 150.2Q86 147.2 88.9 145.6Q91.9 144 95.7 144Q99.4 144 102.3 145.5Q105.2 147.1 106.9 150Q108.5 152.9 108.5 156.8Q108.5 157.9 108.4 159.1ZM100.4 154.7Q100.4 152.7 99.1 151.5Q97.7 150.3 95.6 150.3Q93.6 150.3 92.3 151.4Q90.9 152.6 90.6 154.7Z M124.2 162.6 129.7 144.3H138.1L129 170H119.3L110.2 144.3H118.6Z M150.3 160.3H158.6Q158.8 162.1 159.9 163.1Q160.9 164 162.6 164Q164.4 164 165.4 163.2Q166.4 162.4 166.4 161Q166.4 159.8 165.6 159Q164.8 158.2 163.6 157.7Q162.4 157.2 160.3 156.6Q157.2 155.6 155.2 154.6Q153.2 153.7 151.8 151.8Q150.4 149.9 150.4 146.9Q150.4 142.4 153.6 139.8Q156.9 137.2 162.1 137.2Q167.5 137.2 170.7 139.8Q174 142.4 174.2 146.9H165.7Q165.6 145.3 164.6 144.4Q163.5 143.6 161.9 143.6Q160.4 143.6 159.6 144.3Q158.7 145.1 158.7 146.5Q158.7 148.1 160.1 148.9Q161.6 149.8 164.7 150.8Q167.9 151.9 169.8 152.8Q171.8 153.8 173.2 155.6Q174.6 157.5 174.6 160.4Q174.6 163.1 173.2 165.4Q171.8 167.7 169.2 169Q166.5 170.3 162.9 170.3Q159.3 170.3 156.5 169.2Q153.7 168 152 165.8Q150.4 163.5 150.3 160.3Z M193.8 163.3V170H189.8Q185.5 170 183.1 167.9Q180.7 165.8 180.7 161.1V150.9H177.6V144.3H180.7V138.1H188.6V144.3H193.7V150.9H188.6V161.2Q188.6 162.3 189.1 162.8Q189.7 163.3 191 163.3Z M207.9 144Q210.6 144 212.7 145.1Q214.7 146.2 215.8 148V144.3H223.7V170H215.8V166.4Q214.7 168.2 212.6 169.3Q210.6 170.4 207.8 170.4Q204.7 170.4 202.1 168.7Q199.6 167.1 198.1 164.1Q196.6 161.1 196.6 157.1Q196.6 153.2 198.1 150.2Q199.6 147.2 202.1 145.6Q204.7 144 207.9 144ZM210.2 150.8Q207.8 150.8 206.2 152.5Q204.6 154.2 204.6 157.1Q204.6 160.1 206.2 161.8Q207.8 163.5 210.2 163.5Q212.5 163.5 214.2 161.8Q215.8 160.1 215.8 157.2Q215.8 154.2 214.2 152.5Q212.5 150.8 210.2 150.8Z M240.7 144Q245.5 144 248.8 146.5Q252 149 253 153.6H244.7Q243.6 150.7 240.6 150.7Q238.4 150.7 237.1 152.4Q235.8 154 235.8 157.2Q235.8 160.3 237.1 162Q238.4 163.7 240.6 163.7Q243.6 163.7 244.7 160.7H253Q252 165.2 248.7 167.8Q245.5 170.4 240.7 170.4Q236.9 170.4 234 168.8Q231.1 167.1 229.4 164.2Q227.8 161.2 227.8 157.2Q227.8 153.2 229.4 150.2Q231.1 147.2 234 145.6Q236.9 144 240.7 144Z M272.9 170 265.1 159.2V170H257.2V136H265.1V154.8L272.8 144.3H282.6L271.9 157.2L282.6 170Z" fill="#f3faf6"/><g class="arr" fill="none" stroke="#3ddc97" stroke-width="5" stroke-linecap="round" stroke-linejoin="round"><path d="M304.784 162 L326.784 140"/><path d="M310.784 140 H326.784 V156"/></g><path d="M64 213Q64 215.3 62.2 216.7Q60.5 218 57.4 218H50.1V200.1H56.6Q62.9 200.1 62.9 204.5Q62.9 206 62 207.1Q61.2 208.2 59.5 208.6Q61.7 208.8 62.8 210Q64 211.2 64 213ZM60.5 204.7Q60.5 203.3 59.5 202.7Q58.5 202.1 56.6 202.1H52.6V207.7H56.6Q58.6 207.7 59.5 207Q60.5 206.3 60.5 204.7ZM61.5 212.8Q61.5 209.6 57.1 209.6H52.6V216.1H57.3Q59.5 216.1 60.5 215.2Q61.5 214.4 61.5 212.8Z M67.1 218V207.5Q67.1 206 67.1 204.3H69.2Q69.3 206.6 69.3 207.1H69.4Q69.9 205.3 70.6 204.7Q71.3 204 72.6 204Q73.1 204 73.6 204.1V206.2Q73.1 206.1 72.3 206.1Q70.9 206.1 70.2 207.3Q69.4 208.6 69.4 210.8V218Z M87.4 211.1Q87.4 214.7 85.8 216.5Q84.2 218.3 81.2 218.3Q78.2 218.3 76.6 216.4Q75.1 214.6 75.1 211.1Q75.1 204 81.2 204Q84.4 204 85.9 205.7Q87.4 207.5 87.4 211.1ZM85 211.1Q85 208.3 84.1 207Q83.3 205.7 81.3 205.7Q79.3 205.7 78.4 207Q77.5 208.3 77.5 211.1Q77.5 213.8 78.4 215.2Q79.3 216.6 81.1 216.6Q83.2 216.6 84.1 215.2Q85 213.9 85 211.1Z M103.4 218H100.7L98.3 208.3L97.9 206.1Q97.7 206.7 97.5 207.8Q97.3 208.9 94.9 218H92.3L88.4 204.3H90.7L93 213.6Q93.1 213.9 93.6 216.1L93.8 215.2L96.6 204.3H99.1L101.5 213.7L102.1 216.1L102.5 214.3L105.1 204.3H107.3Z M119.3 214.2Q119.3 216.1 117.8 217.2Q116.4 218.3 113.7 218.3Q111.2 218.3 109.8 217.4Q108.4 216.6 108 214.8L110 214.4Q110.3 215.5 111.2 216Q112.1 216.5 113.7 216.5Q115.5 216.5 116.3 216Q117.1 215.4 117.1 214.4Q117.1 213.6 116.5 213.1Q116 212.6 114.7 212.2L113.1 211.8Q111.1 211.3 110.3 210.8Q109.4 210.3 109 209.6Q108.5 208.9 108.5 207.9Q108.5 206 109.8 205Q111.2 204 113.7 204Q116 204 117.4 204.8Q118.7 205.6 119.1 207.4L117 207.7Q116.8 206.8 116 206.3Q115.1 205.8 113.7 205.8Q112.2 205.8 111.5 206.2Q110.7 206.7 110.7 207.7Q110.7 208.2 111 208.6Q111.3 209 111.9 209.3Q112.5 209.5 114.4 210Q116.3 210.5 117.1 210.9Q117.9 211.2 118.3 211.7Q118.8 212.2 119 212.8Q119.3 213.4 119.3 214.2Z M123.7 211.6Q123.7 214 124.7 215.3Q125.7 216.5 127.6 216.5Q129.1 216.5 130 215.9Q130.8 215.3 131.2 214.4L133.2 215Q131.9 218.3 127.6 218.3Q124.5 218.3 122.9 216.4Q121.3 214.6 121.3 211Q121.3 207.6 122.9 205.8Q124.5 204 127.5 204Q133.5 204 133.5 211.3V211.6ZM131.2 209.9Q131 207.7 130.1 206.7Q129.2 205.7 127.4 205.7Q125.8 205.7 124.8 206.8Q123.8 207.9 123.8 209.9Z M152.3 215.8Q151.7 217.1 150.7 217.7Q149.6 218.3 148.1 218.3Q145.5 218.3 144.2 216.5Q143 214.8 143 211.2Q143 204 148.1 204Q149.6 204 150.7 204.6Q151.7 205.2 152.3 206.4H152.4L152.3 204.9V199.2H154.6V215.2Q154.6 217.3 154.7 218H152.5Q152.5 217.8 152.4 217.1Q152.4 216.3 152.4 215.8ZM145.4 211.1Q145.4 214 146.2 215.2Q146.9 216.5 148.6 216.5Q150.6 216.5 151.5 215.1Q152.3 213.8 152.3 211Q152.3 208.2 151.5 207Q150.6 205.7 148.7 205.7Q146.9 205.7 146.2 207Q145.4 208.2 145.4 211.1Z M159.9 211.6Q159.9 214 160.9 215.3Q161.8 216.5 163.7 216.5Q165.2 216.5 166.1 215.9Q167 215.3 167.3 214.4L169.3 215Q168.1 218.3 163.7 218.3Q160.7 218.3 159.1 216.4Q157.5 214.6 157.5 211Q157.5 207.6 159.1 205.8Q160.7 204 163.6 204Q169.7 204 169.7 211.3V211.6ZM167.3 209.9Q167.1 207.7 166.2 206.7Q165.3 205.7 163.6 205.7Q161.9 205.7 161 206.8Q160 207.9 159.9 209.9Z M178.6 218H175.9L170.9 204.3H173.4L176.4 213.2Q176.6 213.7 177.3 216.2L177.7 214.7L178.2 213.2L181.3 204.3H183.8Z M198.1 217.9Q197 218.2 195.8 218.2Q193 218.2 193 215.1V205.9H191.5V204.3H193.1L193.8 201.2H195.3V204.3H197.9V205.9H195.3V214.6Q195.3 215.6 195.7 216Q196 216.4 196.8 216.4Q197.2 216.4 198.1 216.2Z M211.7 211.1Q211.7 214.7 210.1 216.5Q208.5 218.3 205.5 218.3Q202.5 218.3 200.9 216.4Q199.4 214.6 199.4 211.1Q199.4 204 205.5 204Q208.7 204 210.2 205.7Q211.7 207.5 211.7 211.1ZM209.3 211.1Q209.3 208.3 208.4 207Q207.6 205.7 205.6 205.7Q203.6 205.7 202.7 207Q201.8 208.3 201.8 211.1Q201.8 213.8 202.7 215.2Q203.5 216.6 205.4 216.6Q207.5 216.6 208.4 215.2Q209.3 213.9 209.3 211.1Z M226.1 211.1Q226.1 214.7 224.5 216.5Q222.9 218.3 219.9 218.3Q216.9 218.3 215.4 216.4Q213.8 214.6 213.8 211.1Q213.8 204 220 204Q223.1 204 224.6 205.7Q226.1 207.5 226.1 211.1ZM223.7 211.1Q223.7 208.3 222.9 207Q222 205.7 220 205.7Q218 205.7 217.1 207Q216.2 208.3 216.2 211.1Q216.2 213.8 217.1 215.2Q218 216.6 219.9 216.6Q222 216.6 222.8 215.2Q223.7 213.9 223.7 211.1Z M229 218V199.2H231.2V218Z M245 214.2Q245 216.1 243.6 217.2Q242.1 218.3 239.5 218.3Q236.9 218.3 235.5 217.4Q234.1 216.6 233.7 214.8L235.7 214.4Q236 215.5 236.9 216Q237.8 216.5 239.5 216.5Q241.2 216.5 242 216Q242.8 215.4 242.8 214.4Q242.8 213.6 242.3 213.1Q241.7 212.6 240.5 212.2L238.8 211.8Q236.9 211.3 236 210.8Q235.2 210.3 234.7 209.6Q234.3 208.9 234.3 207.9Q234.3 206 235.6 205Q236.9 204 239.5 204Q241.8 204 243.1 204.8Q244.4 205.6 244.8 207.4L242.7 207.7Q242.6 206.8 241.7 206.3Q240.9 205.8 239.5 205.8Q237.9 205.8 237.2 206.2Q236.5 206.7 236.5 207.7Q236.5 208.2 236.8 208.6Q237.1 209 237.7 209.3Q238.3 209.5 240.2 210Q242 210.5 242.8 210.9Q243.6 211.2 244.1 211.7Q244.5 212.2 244.8 212.8Q245 213.4 245 214.2Z M258.5 218.3Q256.4 218.3 255.4 217.2Q254.3 216.1 254.3 214.2Q254.3 212 255.7 210.9Q257.1 209.7 260.2 209.7L263.3 209.6V208.9Q263.3 207.2 262.6 206.5Q261.9 205.7 260.4 205.7Q258.8 205.7 258.1 206.3Q257.4 206.8 257.3 207.9L254.9 207.7Q255.5 204 260.4 204Q263 204 264.3 205.2Q265.6 206.4 265.6 208.6V214.5Q265.6 215.6 265.9 216.1Q266.2 216.6 266.9 216.6Q267.2 216.6 267.7 216.5V217.9Q266.8 218.1 265.9 218.1Q264.6 218.1 264.1 217.5Q263.5 216.8 263.4 215.4H263.3Q262.4 216.9 261.3 217.6Q260.1 218.3 258.5 218.3ZM259 216.5Q260.2 216.5 261.2 216Q262.2 215.4 262.8 214.4Q263.3 213.4 263.3 212.4V211.2L260.8 211.3Q259.2 211.3 258.4 211.6Q257.5 211.9 257.1 212.5Q256.7 213.2 256.7 214.2Q256.7 215.3 257.3 215.9Q257.9 216.5 259 216.5Z M278.1 218V209.3Q278.1 207.9 277.9 207.2Q277.6 206.4 277 206.1Q276.4 205.8 275.3 205.8Q273.7 205.8 272.7 206.9Q271.8 208 271.8 210V218H269.5V207.2Q269.5 204.8 269.4 204.3H271.6Q271.6 204.3 271.6 204.6Q271.6 204.9 271.6 205.2Q271.6 205.6 271.7 206.6H271.7Q272.5 205.2 273.5 204.6Q274.5 204 276.1 204Q278.3 204 279.4 205.1Q280.4 206.3 280.4 208.8V218Z M292.5 215.8Q291.9 217.1 290.9 217.7Q289.8 218.3 288.3 218.3Q285.7 218.3 284.4 216.5Q283.2 214.8 283.2 211.2Q283.2 204 288.3 204Q289.8 204 290.9 204.6Q291.9 205.2 292.5 206.4H292.6L292.5 204.9V199.2H294.8V215.2Q294.8 217.3 294.9 218H292.7Q292.7 217.8 292.6 217.1Q292.6 216.3 292.6 215.8ZM285.6 211.1Q285.6 214 286.4 215.2Q287.1 216.5 288.9 216.5Q290.8 216.5 291.7 215.1Q292.5 213.8 292.5 211Q292.5 208.2 291.7 207Q290.8 205.7 288.9 205.7Q287.2 205.7 286.4 207Q285.6 208.2 285.6 211.1Z M317.2 211.1Q317.2 218.3 312.1 218.3Q310.6 218.3 309.5 217.7Q308.5 217.1 307.8 215.9H307.8Q307.8 216.3 307.8 217.1Q307.7 217.9 307.7 218H305.5Q305.6 217.3 305.6 215.2V199.2H307.8V204.5Q307.8 205.4 307.8 206.5H307.8Q308.5 205.2 309.5 204.6Q310.6 204 312.1 204Q314.7 204 316 205.8Q317.2 207.5 317.2 211.1ZM314.8 211.1Q314.8 208.3 314 207Q313.3 205.8 311.5 205.8Q309.6 205.8 308.7 207.1Q307.8 208.4 307.8 211.3Q307.8 214 308.7 215.3Q309.6 216.6 311.5 216.6Q313.2 216.6 314 215.3Q314.8 214 314.8 211.1Z M322.3 204.3V213Q322.3 214.3 322.5 215.1Q322.8 215.8 323.4 216.2Q324 216.5 325.1 216.5Q326.7 216.5 327.7 215.4Q328.6 214.2 328.6 212.2V204.3H330.9V215.1Q330.9 217.5 331 218H328.8Q328.8 217.9 328.8 217.7Q328.8 217.4 328.8 217Q328.8 216.7 328.7 215.7H328.7Q327.9 217.1 326.9 217.7Q325.8 218.3 324.3 218.3Q322.1 218.3 321 217.1Q320 216 320 213.4V204.3Z M334.5 201.3V199.2H336.8V201.3ZM334.5 218V204.3H336.8V218Z M340.3 218V199.2H342.5V218Z M354.7 215.8Q354.1 217.1 353 217.7Q352 218.3 350.4 218.3Q347.8 218.3 346.6 216.5Q345.4 214.8 345.4 211.2Q345.4 204 350.4 204Q352 204 353 204.6Q354.1 205.2 354.7 206.4H354.7L354.7 204.9V199.2H357V215.2Q357 217.3 357.1 218H354.9Q354.8 217.8 354.8 217.1Q354.8 216.3 354.8 215.8ZM347.8 211.1Q347.8 214 348.5 215.2Q349.3 216.5 351 216.5Q353 216.5 353.8 215.1Q354.7 213.8 354.7 211Q354.7 208.2 353.8 207Q353 205.7 351 205.7Q349.3 205.7 348.5 207Q347.8 208.2 347.8 211.1Z M368.4 223.4Q367.5 223.4 366.8 223.3V221.5Q367.3 221.6 367.9 221.6Q370 221.6 371.3 218.5L371.5 217.9L366 204.3H368.5L371.4 211.9Q371.4 212 371.5 212.3Q371.6 212.5 372.1 213.9Q372.6 215.3 372.6 215.5L373.5 213L376.5 204.3H378.9L373.6 218Q372.8 220.2 372 221.3Q371.3 222.3 370.4 222.9Q369.5 223.4 368.4 223.4Z M392.3 211.1Q392.3 214.7 390.7 216.5Q389.2 218.3 386.1 218.3Q383.1 218.3 381.6 216.4Q380.1 214.6 380.1 211.1Q380.1 204 386.2 204Q389.4 204 390.8 205.7Q392.3 207.5 392.3 211.1ZM389.9 211.1Q389.9 208.3 389.1 207Q388.2 205.7 386.3 205.7Q384.2 205.7 383.4 207Q382.5 208.3 382.5 211.1Q382.5 213.8 383.3 215.2Q384.2 216.6 386.1 216.6Q388.2 216.6 389.1 215.2Q389.9 213.9 389.9 211.1Z M397.4 204.3V213Q397.4 214.3 397.7 215.1Q397.9 215.8 398.5 216.2Q399.1 216.5 400.2 216.5Q401.9 216.5 402.8 215.4Q403.8 214.2 403.8 212.2V204.3H406.1V215.1Q406.1 217.5 406.2 218H404Q404 217.9 404 217.7Q404 217.4 403.9 217Q403.9 216.7 403.9 215.7H403.9Q403.1 217.1 402 217.7Q401 218.3 399.5 218.3Q397.2 218.3 396.2 217.1Q395.1 216 395.1 213.4V204.3Z M409.7 218V207.5Q409.7 206 409.6 204.3H411.8Q411.9 206.6 411.9 207.1H411.9Q412.5 205.3 413.2 204.7Q413.9 204 415.2 204Q415.6 204 416.1 204.1V206.2Q415.7 206.1 414.9 206.1Q413.5 206.1 412.7 207.3Q412 208.6 412 210.8V218Z M437.1 211.1Q437.1 214.7 435.5 216.5Q434 218.3 430.9 218.3Q427.9 218.3 426.4 216.4Q424.9 214.6 424.9 211.1Q424.9 204 431 204Q434.2 204 435.7 205.7Q437.1 207.5 437.1 211.1ZM434.7 211.1Q434.7 208.3 433.9 207Q433 205.7 431.1 205.7Q429 205.7 428.2 207Q427.3 208.3 427.3 211.1Q427.3 213.8 428.1 215.2Q429 216.6 430.9 216.6Q433 216.6 433.9 215.2Q434.7 213.9 434.7 211.1Z M453.1 218H450.5L448.1 208.3L447.6 206.1Q447.5 206.7 447.3 207.8Q447 208.9 444.7 218H442L438.2 204.3H440.5L442.8 213.6Q442.9 213.9 443.3 216.1L443.5 215.2L446.4 204.3H448.9L451.3 213.7L451.8 216.1L452.2 214.3L454.8 204.3H457.1Z M467.5 218V209.3Q467.5 207.9 467.2 207.2Q466.9 206.4 466.4 206.1Q465.8 205.8 464.6 205.8Q463 205.8 462 206.9Q461.1 208 461.1 210V218H458.8V207.2Q458.8 204.8 458.7 204.3H460.9Q460.9 204.3 460.9 204.6Q460.9 204.9 460.9 205.2Q461 205.6 461 206.6H461Q461.8 205.2 462.9 204.6Q463.9 204 465.4 204Q467.7 204 468.7 205.1Q469.8 206.3 469.8 208.8V218Z M490.7 214.2Q490.7 216.1 489.3 217.2Q487.8 218.3 485.2 218.3Q482.6 218.3 481.2 217.4Q479.8 216.6 479.4 214.8L481.4 214.4Q481.7 215.5 482.6 216Q483.6 216.5 485.2 216.5Q486.9 216.5 487.7 216Q488.5 215.4 488.5 214.4Q488.5 213.6 488 213.1Q487.4 212.6 486.2 212.2L484.5 211.8Q482.6 211.3 481.7 210.8Q480.9 210.3 480.4 209.6Q480 208.9 480 207.9Q480 206 481.3 205Q482.6 204 485.2 204Q487.5 204 488.8 204.8Q490.2 205.6 490.5 207.4L488.5 207.7Q488.3 206.8 487.4 206.3Q486.6 205.8 485.2 205.8Q483.7 205.8 482.9 206.2Q482.2 206.7 482.2 207.7Q482.2 208.2 482.5 208.6Q482.8 209 483.4 209.3Q484 209.5 485.9 210Q487.7 210.5 488.5 210.9Q489.3 211.2 489.8 211.7Q490.2 212.2 490.5 212.8Q490.7 213.4 490.7 214.2Z M498.7 217.9Q497.6 218.2 496.4 218.2Q493.7 218.2 493.7 215.1V205.9H492.1V204.3H493.8L494.4 201.2H496V204.3H498.5V205.9H496V214.6Q496 215.6 496.3 216Q496.6 216.4 497.4 216.4Q497.9 216.4 498.7 216.2Z M504.2 218.3Q502.1 218.3 501.1 217.2Q500 216.1 500 214.2Q500 212 501.4 210.9Q502.8 209.7 505.9 209.7L509 209.6V208.9Q509 207.2 508.3 206.5Q507.6 205.7 506.1 205.7Q504.5 205.7 503.9 206.3Q503.2 206.8 503 207.9L500.6 207.7Q501.2 204 506.1 204Q508.7 204 510 205.2Q511.3 206.4 511.3 208.6V214.5Q511.3 215.6 511.6 216.1Q511.9 216.6 512.6 216.6Q513 216.6 513.4 216.5V217.9Q512.5 218.1 511.6 218.1Q510.3 218.1 509.8 217.5Q509.2 216.8 509.1 215.4H509Q508.2 216.9 507 217.6Q505.8 218.3 504.2 218.3ZM504.7 216.5Q505.9 216.5 506.9 216Q507.9 215.4 508.5 214.4Q509 213.4 509 212.4V211.2L506.5 211.3Q504.9 211.3 504.1 211.6Q503.3 211.9 502.8 212.5Q502.4 213.2 502.4 214.2Q502.4 215.3 503 215.9Q503.6 216.5 504.7 216.5Z M516.9 211.1Q516.9 213.8 517.7 215.1Q518.6 216.5 520.3 216.5Q521.5 216.5 522.4 215.8Q523.2 215.1 523.4 213.8L525.7 213.9Q525.4 215.9 524 217.1Q522.6 218.3 520.4 218.3Q517.5 218.3 516 216.4Q514.5 214.6 514.5 211.1Q514.5 207.7 516 205.8Q517.5 204 520.4 204Q522.5 204 523.9 205.1Q525.3 206.2 525.6 208.1L523.3 208.3Q523.1 207.1 522.4 206.5Q521.6 205.8 520.3 205.8Q518.5 205.8 517.7 207Q516.9 208.2 516.9 211.1Z M536.7 218 532.1 211.7 530.4 213.1V218H528.1V199.2H530.4V210.9L536.4 204.3H539.1L533.5 210.2L539.4 218Z M541.7 218V215.2H544.2V218Z" fill="#b9cec3"/><rect x="48" y="259" width="10" height="10" rx="2" fill="#3ddc97"/><path d="M87.6 272 83.4 265.1H78.2V272H76V255.5H83.7Q86.5 255.5 88 256.7Q89.6 258 89.6 260.2Q89.6 262.1 88.5 263.3Q87.4 264.6 85.5 264.9L90.2 272ZM87.3 260.2Q87.3 258.8 86.3 258Q85.4 257.3 83.5 257.3H78.2V263.4H83.6Q85.4 263.4 86.3 262.5Q87.3 261.7 87.3 260.2Z M96.2 272.2Q94.3 272.2 93.3 271.2Q92.4 270.2 92.4 268.5Q92.4 266.5 93.6 265.4Q94.9 264.4 97.8 264.3L100.7 264.3V263.6Q100.7 262 100 261.4Q99.4 260.7 98 260.7Q96.5 260.7 95.9 261.2Q95.2 261.7 95.1 262.7L92.9 262.5Q93.5 259.1 98 259.1Q100.4 259.1 101.6 260.2Q102.8 261.3 102.8 263.4V268.8Q102.8 269.8 103.1 270.2Q103.3 270.7 104 270.7Q104.3 270.7 104.7 270.6V271.9Q103.9 272.1 103.1 272.1Q101.9 272.1 101.3 271.5Q100.8 270.9 100.7 269.6H100.7Q99.9 271 98.8 271.6Q97.7 272.2 96.2 272.2ZM96.7 270.7Q97.8 270.7 98.7 270.1Q99.6 269.6 100.2 268.7Q100.7 267.8 100.7 266.8V265.7L98.4 265.8Q96.9 265.8 96.1 266.1Q95.3 266.4 94.9 267Q94.5 267.5 94.5 268.5Q94.5 269.5 95.1 270.1Q95.6 270.7 96.7 270.7Z M111.2 271.9Q110.1 272.2 109 272.2Q106.5 272.2 106.5 269.3V260.9H105V259.3H106.6L107.2 256.5H108.6V259.3H111V260.9H108.6V268.9Q108.6 269.8 108.9 270.1Q109.2 270.5 110 270.5Q110.4 270.5 111.2 270.3Z M113 256.6V254.6H115.1V256.6ZM113 272V259.3H115.1V272Z M126.3 272V264Q126.3 262.7 126.1 262Q125.9 261.3 125.3 261Q124.8 260.7 123.7 260.7Q122.2 260.7 121.3 261.8Q120.5 262.8 120.5 264.7V272H118.3V262Q118.3 259.8 118.3 259.3H120.3Q120.3 259.4 120.3 259.6Q120.3 259.9 120.3 260.2Q120.3 260.6 120.4 261.5H120.4Q121.1 260.2 122.1 259.6Q123 259.1 124.4 259.1Q126.5 259.1 127.5 260.1Q128.5 261.2 128.5 263.6V272Z M136.4 277Q134.4 277 133.1 276.2Q131.9 275.4 131.6 273.9L133.7 273.5Q133.9 274.4 134.6 274.9Q135.3 275.4 136.5 275.4Q139.7 275.4 139.7 271.7V269.6H139.6Q139 270.9 138 271.5Q137 272.1 135.6 272.1Q133.2 272.1 132.1 270.5Q131 269 131 265.7Q131 262.3 132.2 260.7Q133.4 259.1 135.8 259.1Q137.1 259.1 138.1 259.7Q139.1 260.4 139.7 261.5H139.7Q139.7 261.1 139.7 260.3Q139.8 259.4 139.8 259.3H141.8Q141.8 260 141.8 261.9V271.6Q141.8 277 136.4 277ZM139.7 265.7Q139.7 264.1 139.2 263Q138.8 261.9 138 261.3Q137.3 260.7 136.3 260.7Q134.7 260.7 134 261.9Q133.2 263 133.2 265.7Q133.2 268.3 133.9 269.4Q134.6 270.5 136.3 270.5Q137.3 270.5 138 269.9Q138.8 269.4 139.2 268.3Q139.7 267.2 139.7 265.7Z M154.5 268.5Q154.5 270.3 153.2 271.3Q151.8 272.2 149.4 272.2Q147 272.2 145.7 271.5Q144.4 270.7 144 269L145.9 268.7Q146.2 269.7 147 270.2Q147.9 270.6 149.4 270.6Q151 270.6 151.7 270.1Q152.5 269.6 152.5 268.7Q152.5 267.9 151.9 267.4Q151.4 267 150.3 266.7L148.8 266.3Q146.9 265.8 146.2 265.3Q145.4 264.9 145 264.3Q144.5 263.6 144.5 262.7Q144.5 260.9 145.8 260Q147 259.1 149.4 259.1Q151.5 259.1 152.7 259.9Q154 260.6 154.3 262.2L152.4 262.5Q152.2 261.6 151.4 261.2Q150.7 260.7 149.4 260.7Q148 260.7 147.3 261.1Q146.6 261.6 146.6 262.5Q146.6 263 146.9 263.4Q147.2 263.7 147.7 263.9Q148.3 264.2 150 264.6Q151.7 265.1 152.4 265.4Q153.2 265.8 153.6 266.2Q154 266.6 154.3 267.2Q154.5 267.8 154.5 268.5Z M166.9 272.2Q165 272.2 164 271.2Q163.1 270.2 163.1 268.5Q163.1 266.5 164.4 265.4Q165.7 264.4 168.5 264.3L171.4 264.3V263.6Q171.4 262 170.7 261.4Q170.1 260.7 168.7 260.7Q167.2 260.7 166.6 261.2Q166 261.7 165.8 262.7L163.6 262.5Q164.2 259.1 168.7 259.1Q171.1 259.1 172.3 260.2Q173.5 261.3 173.5 263.4V268.8Q173.5 269.8 173.8 270.2Q174 270.7 174.7 270.7Q175 270.7 175.4 270.6V271.9Q174.6 272.1 173.8 272.1Q172.6 272.1 172.1 271.5Q171.5 270.9 171.5 269.6H171.4Q170.6 271 169.5 271.6Q168.4 272.2 166.9 272.2ZM167.4 270.7Q168.5 270.7 169.4 270.1Q170.3 269.6 170.9 268.7Q171.4 267.8 171.4 266.8V265.7L169.1 265.8Q167.6 265.8 166.8 266.1Q166.1 266.4 165.6 267Q165.2 267.5 165.2 268.5Q165.2 269.5 165.8 270.1Q166.3 270.7 167.4 270.7Z M185.1 272V264Q185.1 262.7 184.8 262Q184.6 261.3 184 261Q183.5 260.7 182.4 260.7Q180.9 260.7 180 261.8Q179.2 262.8 179.2 264.7V272H177.1V262Q177.1 259.8 177 259.3H179Q179 259.4 179 259.6Q179 259.9 179 260.2Q179 260.6 179.1 261.5H179.1Q179.8 260.2 180.8 259.6Q181.7 259.1 183.2 259.1Q185.2 259.1 186.2 260.1Q187.2 261.2 187.2 263.6V272Z M198.4 270Q197.8 271.2 196.8 271.7Q195.8 272.2 194.4 272.2Q192 272.2 190.9 270.6Q189.7 269 189.7 265.7Q189.7 259.1 194.4 259.1Q195.9 259.1 196.8 259.6Q197.8 260.1 198.4 261.3H198.4L198.4 259.9V254.6H200.5V269.4Q200.5 271.4 200.5 272H198.5Q198.5 271.8 198.4 271.1Q198.4 270.5 198.4 270ZM192 265.6Q192 268.3 192.7 269.5Q193.4 270.6 194.9 270.6Q196.7 270.6 197.6 269.4Q198.4 268.1 198.4 265.5Q198.4 263 197.6 261.8Q196.7 260.6 195 260.6Q193.4 260.6 192.7 261.8Q192 263 192 265.6Z M218.4 270Q217.8 271.2 216.8 271.7Q215.9 272.2 214.4 272.2Q212 272.2 210.9 270.6Q209.8 269 209.8 265.7Q209.8 259.1 214.4 259.1Q215.9 259.1 216.8 259.6Q217.8 260.1 218.4 261.3H218.4L218.4 259.9V254.6H220.5V269.4Q220.5 271.4 220.6 272H218.5Q218.5 271.8 218.5 271.1Q218.4 270.5 218.4 270ZM212 265.6Q212 268.3 212.7 269.5Q213.4 270.6 215 270.6Q216.8 270.6 217.6 269.4Q218.4 268.1 218.4 265.5Q218.4 263 217.6 261.8Q216.8 260.6 215 260.6Q213.4 260.6 212.7 261.8Q212 263 212 265.6Z M223.7 256.6V254.6H225.8V256.6ZM223.7 272V259.3H225.8V272Z M231.7 260.9V272H229.6V260.9H227.8V259.3H229.6V257.9Q229.6 256.2 230.3 255.4Q231.1 254.6 232.6 254.6Q233.5 254.6 234.1 254.8V256.4Q233.6 256.3 233.2 256.3Q232.4 256.3 232 256.7Q231.7 257.1 231.7 258.2V259.3H234.1V260.9Z M237.9 260.9V272H235.8V260.9H234V259.3H235.8V257.9Q235.8 256.2 236.6 255.4Q237.3 254.6 238.9 254.6Q239.8 254.6 240.4 254.8V256.4Q239.8 256.3 239.4 256.3Q238.6 256.3 238.3 256.7Q237.9 257.1 237.9 258.2V259.3H240.4V260.9Z M241.9 256.6V254.6H244.1V256.6ZM241.9 272V259.3H244.1V272Z M248.9 265.6Q248.9 268.1 249.7 269.4Q250.5 270.6 252.1 270.6Q253.2 270.6 254 270Q254.7 269.4 254.9 268.1L257 268.2Q256.8 270.1 255.5 271.1Q254.2 272.2 252.1 272.2Q249.5 272.2 248.1 270.6Q246.7 268.9 246.7 265.6Q246.7 262.4 248.1 260.8Q249.5 259.1 252.1 259.1Q254.1 259.1 255.4 260.1Q256.6 261.1 257 262.9L254.8 263Q254.6 262 254 261.4Q253.3 260.7 252.1 260.7Q250.4 260.7 249.6 261.9Q248.9 263 248.9 265.6Z M261.3 259.3V267.4Q261.3 268.6 261.6 269.3Q261.8 270 262.4 270.3Q262.9 270.6 264 270.6Q265.5 270.6 266.4 269.6Q267.2 268.5 267.2 266.7V259.3H269.4V269.3Q269.4 271.5 269.4 272H267.4Q267.4 271.9 267.4 271.7Q267.4 271.4 267.4 271.1Q267.4 270.8 267.3 269.8H267.3Q266.6 271.1 265.6 271.7Q264.7 272.2 263.2 272.2Q261.2 272.2 260.2 271.2Q259.2 270.2 259.2 267.8V259.3Z M272.6 272V254.6H274.7V272Z M282.8 271.9Q281.8 272.2 280.7 272.2Q278.2 272.2 278.2 269.3V260.9H276.7V259.3H278.3L278.9 256.5H280.3V259.3H282.6V260.9H280.3V268.9Q280.3 269.8 280.6 270.1Q280.9 270.5 281.6 270.5Q282 270.5 282.8 270.3Z M285.3 277Q284.4 277 283.8 276.9V275.3Q284.2 275.3 284.8 275.3Q286.8 275.3 287.9 272.4L288.1 271.9L283.1 259.3H285.3L288 266.3Q288.1 266.5 288.1 266.7Q288.2 266.9 288.7 268.2Q289.1 269.6 289.1 269.7L290 267.4L292.7 259.3H295L290.1 272Q289.3 274 288.6 275Q287.9 276 287.1 276.5Q286.3 277 285.3 277Z M314 265.6Q314 269 312.6 270.6Q311.1 272.2 308.3 272.2Q305.5 272.2 304.1 270.5Q302.7 268.8 302.7 265.6Q302.7 259.1 308.4 259.1Q311.3 259.1 312.7 260.7Q314 262.3 314 265.6ZM311.8 265.6Q311.8 263 311 261.8Q310.2 260.6 308.4 260.6Q306.6 260.6 305.7 261.9Q304.9 263.1 304.9 265.6Q304.9 268.2 305.7 269.4Q306.5 270.7 308.3 270.7Q310.2 270.7 311 269.5Q311.8 268.2 311.8 265.6Z M324.7 272V264Q324.7 262.7 324.5 262Q324.2 261.3 323.7 261Q323.1 260.7 322.1 260.7Q320.6 260.7 319.7 261.8Q318.8 262.8 318.8 264.7V272H316.7V262Q316.7 259.8 316.6 259.3H318.6Q318.6 259.4 318.6 259.6Q318.7 259.9 318.7 260.2Q318.7 260.6 318.7 261.5H318.7Q319.5 260.2 320.4 259.6Q321.4 259.1 322.8 259.1Q324.9 259.1 325.9 260.1Q326.8 261.2 326.8 263.6V272Z M338.3 266.1Q338.3 268.3 339.2 269.5Q340.1 270.7 341.8 270.7Q343.2 270.7 344 270.1Q344.8 269.6 345.1 268.7L347 269.2Q345.9 272.2 341.8 272.2Q339 272.2 337.5 270.6Q336.1 268.9 336.1 265.6Q336.1 262.4 337.5 260.8Q339 259.1 341.7 259.1Q347.3 259.1 347.3 265.8V266.1ZM345.1 264.5Q345 262.5 344.1 261.6Q343.3 260.6 341.7 260.6Q340.2 260.6 339.3 261.7Q338.4 262.7 338.3 264.5Z M355.6 272H353.1L348.5 259.3H350.7L353.5 267.6Q353.7 268 354.3 270.3L354.7 269L355.2 267.6L358.1 259.3H360.3Z M363.6 266.1Q363.6 268.3 364.5 269.5Q365.4 270.7 367.2 270.7Q368.5 270.7 369.4 270.1Q370.2 269.6 370.5 268.7L372.3 269.2Q371.2 272.2 367.2 272.2Q364.4 272.2 362.9 270.6Q361.4 268.9 361.4 265.6Q361.4 262.4 362.9 260.8Q364.4 259.1 367.1 259.1Q372.7 259.1 372.7 265.8V266.1ZM370.5 264.5Q370.3 262.5 369.5 261.6Q368.6 260.6 367.1 260.6Q365.5 260.6 364.6 261.7Q363.7 262.7 363.7 264.5Z M375.4 272V262.3Q375.4 260.9 375.3 259.3H377.3Q377.4 261.5 377.4 261.9H377.5Q378 260.3 378.6 259.7Q379.3 259.1 380.5 259.1Q380.9 259.1 381.3 259.2V261.1Q380.9 261 380.2 261Q378.9 261 378.2 262.2Q377.5 263.3 377.5 265.4V272Z M384 277Q383.1 277 382.5 276.9V275.3Q383 275.3 383.5 275.3Q385.5 275.3 386.6 272.4L386.8 271.9L381.8 259.3H384L386.7 266.3Q386.8 266.5 386.9 266.7Q386.9 266.9 387.4 268.2Q387.8 269.6 387.9 269.7L388.7 267.4L391.5 259.3H393.7L388.8 272Q388 274 387.3 275Q386.7 276 385.8 276.5Q385 277 384 277Z M403.6 265.6Q403.6 268.1 404.4 269.4Q405.2 270.6 406.8 270.6Q407.9 270.6 408.7 270Q409.5 269.4 409.6 268.1L411.8 268.2Q411.5 270.1 410.2 271.1Q408.9 272.2 406.9 272.2Q404.2 272.2 402.8 270.6Q401.4 268.9 401.4 265.6Q401.4 262.4 402.8 260.8Q404.2 259.1 406.9 259.1Q408.8 259.1 410.1 260.1Q411.4 261.1 411.7 262.9L409.5 263Q409.4 262 408.7 261.4Q408 260.7 406.8 260.7Q405.1 260.7 404.4 261.9Q403.6 263 403.6 265.6Z M417.3 272.2Q415.3 272.2 414.4 271.2Q413.4 270.2 413.4 268.5Q413.4 266.5 414.7 265.4Q416 264.4 418.9 264.3L421.7 264.3V263.6Q421.7 262 421.1 261.4Q420.4 260.7 419 260.7Q417.6 260.7 417 261.2Q416.3 261.7 416.2 262.7L414 262.5Q414.5 259.1 419.1 259.1Q421.5 259.1 422.7 260.2Q423.9 261.3 423.9 263.4V268.8Q423.9 269.8 424.1 270.2Q424.4 270.7 425.1 270.7Q425.4 270.7 425.8 270.6V271.9Q425 272.1 424.1 272.1Q422.9 272.1 422.4 271.5Q421.9 270.9 421.8 269.6H421.7Q420.9 271 419.9 271.6Q418.8 272.2 417.3 272.2ZM417.7 270.7Q418.9 270.7 419.8 270.1Q420.7 269.6 421.2 268.7Q421.7 267.8 421.7 266.8V265.7L419.4 265.8Q417.9 265.8 417.2 266.1Q416.4 266.4 416 267Q415.6 267.5 415.6 268.5Q415.6 269.5 416.1 270.1Q416.7 270.7 417.7 270.7Z M427.4 272V262.3Q427.4 260.9 427.3 259.3H429.3Q429.4 261.5 429.4 261.9H429.5Q430 260.3 430.6 259.7Q431.3 259.1 432.5 259.1Q432.9 259.1 433.3 259.2V261.1Q432.9 261 432.2 261Q430.9 261 430.2 262.2Q429.5 263.3 429.5 265.4V272Z M443.4 270Q442.8 271.2 441.8 271.7Q440.8 272.2 439.4 272.2Q437 272.2 435.9 270.6Q434.8 269 434.8 265.7Q434.8 259.1 439.4 259.1Q440.9 259.1 441.8 259.6Q442.8 260.1 443.4 261.3H443.4L443.4 259.9V254.6H445.5V269.4Q445.5 271.4 445.5 272H443.5Q443.5 271.8 443.5 271.1Q443.4 270.5 443.4 270ZM437 265.6Q437 268.3 437.7 269.5Q438.4 270.6 440 270.6Q441.7 270.6 442.6 269.4Q443.4 268.1 443.4 265.5Q443.4 263 442.6 261.8Q441.7 260.6 440 260.6Q438.4 260.6 437.7 261.8Q437 263 437 265.6Z" fill="#e3efe8"/><rect x="48" y="299" width="10" height="10" rx="2" fill="#3ddc97"/><path d="M86.7 312 77.8 297.9 77.9 299.1 78 301V312H76V295.5H78.6L87.5 309.6Q87.4 307.3 87.4 306.3V295.5H89.4V312Z M103.7 305.6Q103.7 309 102.2 310.6Q100.7 312.2 98 312.2Q95.2 312.2 93.8 310.5Q92.3 308.8 92.3 305.6Q92.3 299.1 98 299.1Q100.9 299.1 102.3 300.7Q103.7 302.3 103.7 305.6ZM101.5 305.6Q101.5 303 100.7 301.8Q99.9 300.6 98.1 300.6Q96.2 300.6 95.4 301.9Q94.6 303.1 94.6 305.6Q94.6 308.2 95.4 309.4Q96.2 310.7 97.9 310.7Q99.8 310.7 100.6 309.5Q101.5 308.2 101.5 305.6Z M121 310Q120.4 311.2 119.4 311.7Q118.4 312.2 117 312.2Q114.6 312.2 113.5 310.6Q112.4 309 112.4 305.7Q112.4 299.1 117 299.1Q118.5 299.1 119.4 299.6Q120.4 300.1 121 301.3H121L121 299.9V294.6H123.1V309.4Q123.1 311.4 123.1 312H121.1Q121.1 311.8 121.1 311.1Q121 310.5 121 310ZM114.6 305.6Q114.6 308.3 115.3 309.5Q116 310.6 117.6 310.6Q119.4 310.6 120.2 309.4Q121 308.1 121 305.5Q121 303 120.2 301.8Q119.4 300.6 117.6 300.6Q116 300.6 115.3 301.8Q114.6 303 114.6 305.6Z M128.4 299.3V307.4Q128.4 308.6 128.6 309.3Q128.9 310 129.4 310.3Q129.9 310.6 131 310.6Q132.5 310.6 133.4 309.6Q134.3 308.5 134.3 306.7V299.3H136.4V309.3Q136.4 311.5 136.4 312H134.5Q134.4 311.9 134.4 311.7Q134.4 311.4 134.4 311.1Q134.4 310.8 134.4 309.8H134.3Q133.6 311.1 132.6 311.7Q131.7 312.2 130.3 312.2Q128.2 312.2 127.2 311.2Q126.3 310.2 126.3 307.8V299.3Z M150.4 305.6Q150.4 312.2 145.7 312.2Q142.8 312.2 141.8 310H141.7Q141.8 310.1 141.8 312V317H139.7V301.9Q139.7 300 139.6 299.3H141.6Q141.6 299.4 141.7 299.7Q141.7 299.9 141.7 300.5Q141.7 301.1 141.7 301.4H141.8Q142.4 300.2 143.3 299.6Q144.2 299.1 145.7 299.1Q148.1 299.1 149.2 300.7Q150.4 302.2 150.4 305.6ZM148.2 305.6Q148.2 303 147.5 301.9Q146.7 300.7 145.2 300.7Q143.9 300.7 143.2 301.3Q142.5 301.8 142.1 302.9Q141.8 304 141.8 305.8Q141.8 308.3 142.6 309.5Q143.4 310.7 145.2 310.7Q146.7 310.7 147.4 309.5Q148.2 308.4 148.2 305.6Z M153 312V294.6H155.1V312Z M158.3 296.6V294.6H160.4V296.6ZM158.3 312V299.3H160.4V312Z M165.3 305.6Q165.3 308.1 166.1 309.4Q166.9 310.6 168.5 310.6Q169.6 310.6 170.4 310Q171.1 309.4 171.3 308.1L173.4 308.2Q173.2 310.1 171.9 311.1Q170.6 312.2 168.5 312.2Q165.9 312.2 164.5 310.6Q163.1 308.9 163.1 305.6Q163.1 302.4 164.5 300.8Q165.9 299.1 168.5 299.1Q170.5 299.1 171.7 300.1Q173 301.1 173.4 302.9L171.2 303Q171 302 170.4 301.4Q169.7 300.7 168.5 300.7Q166.8 300.7 166 301.9Q165.3 303 165.3 305.6Z M178.9 312.2Q177 312.2 176 311.2Q175.1 310.2 175.1 308.5Q175.1 306.5 176.4 305.4Q177.7 304.4 180.5 304.3L183.4 304.3V303.6Q183.4 302 182.7 301.4Q182.1 300.7 180.7 300.7Q179.3 300.7 178.6 301.2Q178 301.7 177.8 302.7L175.6 302.5Q176.2 299.1 180.7 299.1Q183.1 299.1 184.3 300.2Q185.5 301.3 185.5 303.4V308.8Q185.5 309.8 185.8 310.2Q186 310.7 186.7 310.7Q187 310.7 187.4 310.6V311.9Q186.6 312.1 185.8 312.1Q184.6 312.1 184.1 311.5Q183.5 310.9 183.5 309.6H183.4Q182.6 311 181.5 311.6Q180.4 312.2 178.9 312.2ZM179.4 310.7Q180.5 310.7 181.4 310.1Q182.4 309.6 182.9 308.7Q183.4 307.8 183.4 306.8V305.7L181.1 305.8Q179.6 305.8 178.8 306.1Q178.1 306.4 177.7 307Q177.2 307.5 177.2 308.5Q177.2 309.5 177.8 310.1Q178.4 310.7 179.4 310.7Z M193.9 311.9Q192.9 312.2 191.8 312.2Q189.2 312.2 189.2 309.3V300.9H187.8V299.3H189.3L189.9 296.5H191.3V299.3H193.7V300.9H191.3V308.9Q191.3 309.8 191.6 310.1Q191.9 310.5 192.7 310.5Q193.1 310.5 193.9 310.3Z M197.3 306.1Q197.3 308.3 198.2 309.5Q199.1 310.7 200.8 310.7Q202.2 310.7 203 310.1Q203.9 309.6 204.2 308.7L206 309.2Q204.9 312.2 200.8 312.2Q198 312.2 196.6 310.6Q195.1 308.9 195.1 305.6Q195.1 302.4 196.6 300.8Q198 299.1 200.8 299.1Q206.4 299.1 206.4 305.8V306.1ZM204.2 304.5Q204 302.5 203.2 301.6Q202.3 300.6 200.7 300.6Q199.2 300.6 198.3 301.7Q197.4 302.7 197.3 304.5Z M218.6 308.5Q218.6 310.3 217.2 311.3Q215.8 312.2 213.4 312.2Q211 312.2 209.8 311.5Q208.5 310.7 208.1 309L209.9 308.7Q210.2 309.7 211.1 310.2Q211.9 310.6 213.4 310.6Q215 310.6 215.8 310.1Q216.5 309.6 216.5 308.7Q216.5 307.9 216 307.4Q215.5 307 214.3 306.7L212.8 306.3Q211 305.8 210.2 305.3Q209.5 304.9 209 304.3Q208.6 303.6 208.6 302.7Q208.6 300.9 209.8 300Q211.1 299.1 213.4 299.1Q215.5 299.1 216.8 299.9Q218 300.6 218.3 302.2L216.4 302.5Q216.3 301.6 215.5 301.2Q214.7 300.7 213.4 300.7Q212 300.7 211.3 301.1Q210.6 301.6 210.6 302.5Q210.6 303 210.9 303.4Q211.2 303.7 211.8 303.9Q212.3 304.2 214.1 304.6Q215.8 305.1 216.5 305.4Q217.2 305.8 217.7 306.2Q218.1 306.6 218.3 307.2Q218.6 307.8 218.6 308.5Z M223.9 309.4V311.4Q223.9 312.6 223.7 313.5Q223.5 314.3 223 315.1H221.6Q222.7 313.5 222.7 312H221.6V309.4Z M234.4 296.6V294.6H236.5V296.6ZM234.4 312V299.3H236.5V312Z M247.8 312V304Q247.8 302.7 247.5 302Q247.3 301.3 246.7 301Q246.2 300.7 245.1 300.7Q243.6 300.7 242.7 301.8Q241.9 302.8 241.9 304.7V312H239.8V302Q239.8 299.8 239.7 299.3H241.7Q241.7 299.4 241.7 299.6Q241.7 299.9 241.7 300.2Q241.7 300.6 241.8 301.5H241.8Q242.5 300.2 243.5 299.6Q244.4 299.1 245.9 299.1Q247.9 299.1 248.9 300.1Q249.9 301.2 249.9 303.6V312Z M262.6 308.5Q262.6 310.3 261.2 311.3Q259.9 312.2 257.4 312.2Q255.1 312.2 253.8 311.5Q252.5 310.7 252.1 309L254 308.7Q254.2 309.7 255.1 310.2Q255.9 310.6 257.4 310.6Q259 310.6 259.8 310.1Q260.5 309.6 260.5 308.7Q260.5 307.9 260 307.4Q259.5 307 258.3 306.7L256.8 306.3Q255 305.8 254.2 305.3Q253.5 304.9 253 304.3Q252.6 303.6 252.6 302.7Q252.6 300.9 253.8 300Q255.1 299.1 257.4 299.1Q259.5 299.1 260.8 299.9Q262 300.6 262.3 302.2L260.4 302.5Q260.3 301.6 259.5 301.2Q258.7 300.7 257.4 300.7Q256 300.7 255.3 301.1Q254.7 301.6 254.7 302.5Q254.7 303 254.9 303.4Q255.2 303.7 255.8 303.9Q256.3 304.2 258.1 304.6Q259.8 305.1 260.5 305.4Q261.2 305.8 261.7 306.2Q262.1 306.6 262.3 307.2Q262.6 307.8 262.6 308.5Z M269.9 311.9Q268.9 312.2 267.8 312.2Q265.3 312.2 265.3 309.3V300.9H263.8V299.3H265.3L266 296.5H267.4V299.3H269.7V300.9H267.4V308.9Q267.4 309.8 267.7 310.1Q268 310.5 268.7 310.5Q269.1 310.5 269.9 310.3Z M275 312.2Q273 312.2 272.1 311.2Q271.1 310.2 271.1 308.5Q271.1 306.5 272.4 305.4Q273.7 304.4 276.6 304.3L279.4 304.3V303.6Q279.4 302 278.8 301.4Q278.1 300.7 276.7 300.7Q275.3 300.7 274.7 301.2Q274 301.7 273.9 302.7L271.7 302.5Q272.2 299.1 276.8 299.1Q279.2 299.1 280.4 300.2Q281.6 301.3 281.6 303.4V308.8Q281.6 309.8 281.8 310.2Q282.1 310.7 282.8 310.7Q283.1 310.7 283.4 310.6V311.9Q282.7 312.1 281.8 312.1Q280.6 312.1 280.1 311.5Q279.6 310.9 279.5 309.6H279.4Q278.6 311 277.6 311.6Q276.5 312.2 275 312.2ZM275.4 310.7Q276.6 310.7 277.5 310.1Q278.4 309.6 278.9 308.7Q279.4 307.8 279.4 306.8V305.7L277.1 305.8Q275.6 305.8 274.9 306.1Q274.1 306.4 273.7 307Q273.3 307.5 273.3 308.5Q273.3 309.5 273.8 310.1Q274.4 310.7 275.4 310.7Z M293.1 312V304Q293.1 302.7 292.9 302Q292.6 301.3 292.1 301Q291.5 300.7 290.5 300.7Q289 300.7 288.1 301.8Q287.2 302.8 287.2 304.7V312H285.1V302Q285.1 299.8 285 299.3H287Q287 299.4 287.1 299.6Q287.1 299.9 287.1 300.2Q287.1 300.6 287.1 301.5H287.2Q287.9 300.2 288.8 299.6Q289.8 299.1 291.2 299.1Q293.3 299.1 294.3 300.1Q295.2 301.2 295.2 303.6V312Z M303.3 311.9Q302.2 312.2 301.2 312.2Q298.6 312.2 298.6 309.3V300.9H297.2V299.3H298.7L299.3 296.5H300.7V299.3H303.1V300.9H300.7V308.9Q300.7 309.8 301 310.1Q301.3 310.5 302.1 310.5Q302.5 310.5 303.3 310.3Z M314.4 300.9V312H312.3V300.9H310.5V299.3H312.3V297.9Q312.3 296.2 313 295.4Q313.8 294.6 315.3 294.6Q316.2 294.6 316.8 294.8V296.4Q316.3 296.3 315.9 296.3Q315.1 296.3 314.7 296.7Q314.4 297.1 314.4 298.2V299.3H316.8V300.9Z M320 306.1Q320 308.3 320.9 309.5Q321.8 310.7 323.6 310.7Q324.9 310.7 325.8 310.1Q326.6 309.6 326.9 308.7L328.7 309.2Q327.6 312.2 323.6 312.2Q320.8 312.2 319.3 310.6Q317.8 308.9 317.8 305.6Q317.8 302.4 319.3 300.8Q320.8 299.1 323.5 299.1Q329.1 299.1 329.1 305.8V306.1ZM326.9 304.5Q326.7 302.5 325.9 301.6Q325 300.6 323.5 300.6Q321.9 300.6 321 301.7Q320.1 302.7 320.1 304.5Z M333.4 306.1Q333.4 308.3 334.3 309.5Q335.2 310.7 336.9 310.7Q338.3 310.7 339.1 310.1Q339.9 309.6 340.2 308.7L342.1 309.2Q341 312.2 336.9 312.2Q334.1 312.2 332.6 310.6Q331.2 308.9 331.2 305.6Q331.2 302.4 332.6 300.8Q334.1 299.1 336.8 299.1Q342.4 299.1 342.4 305.8V306.1ZM340.2 304.5Q340.1 302.5 339.2 301.6Q338.4 300.6 336.8 300.6Q335.3 300.6 334.4 301.7Q333.5 302.7 333.4 304.5Z M353.1 310Q352.5 311.2 351.6 311.7Q350.6 312.2 349.2 312.2Q346.8 312.2 345.6 310.6Q344.5 309 344.5 305.7Q344.5 299.1 349.2 299.1Q350.6 299.1 351.6 299.6Q352.5 300.1 353.1 301.3H353.1L353.1 299.9V294.6H355.2V309.4Q355.2 311.4 355.3 312H353.3Q353.2 311.8 353.2 311.1Q353.2 310.5 353.2 310ZM346.7 305.6Q346.7 308.3 347.4 309.5Q348.1 310.6 349.7 310.6Q351.5 310.6 352.3 309.4Q353.1 308.1 353.1 305.5Q353.1 303 352.3 301.8Q351.5 300.6 349.7 300.6Q348.1 300.6 347.4 301.8Q346.7 303 346.7 305.6Z M369.2 305.6Q369.2 312.2 364.5 312.2Q363.1 312.2 362.1 311.7Q361.2 311.2 360.6 310H360.5Q360.5 310.4 360.5 311.1Q360.5 311.9 360.4 312H358.4Q358.5 311.4 358.5 309.4V294.6H360.6V299.6Q360.6 300.3 360.5 301.4H360.6Q361.2 300.1 362.1 299.6Q363.1 299.1 364.5 299.1Q366.9 299.1 368.1 300.7Q369.2 302.3 369.2 305.6ZM367 305.7Q367 303 366.3 301.9Q365.6 300.7 364 300.7Q362.2 300.7 361.4 301.9Q360.6 303.2 360.6 305.8Q360.6 308.3 361.4 309.5Q362.2 310.7 364 310.7Q365.6 310.7 366.3 309.5Q367 308.3 367 305.7Z M375 312.2Q373.1 312.2 372.2 311.2Q371.2 310.2 371.2 308.5Q371.2 306.5 372.5 305.4Q373.8 304.4 376.7 304.3L379.5 304.3V303.6Q379.5 302 378.9 301.4Q378.2 300.7 376.8 300.7Q375.4 300.7 374.8 301.2Q374.1 301.7 374 302.7L371.8 302.5Q372.3 299.1 376.9 299.1Q379.2 299.1 380.5 300.2Q381.7 301.3 381.7 303.4V308.8Q381.7 309.8 381.9 310.2Q382.2 310.7 382.8 310.7Q383.2 310.7 383.5 310.6V311.9Q382.7 312.1 381.9 312.1Q380.7 312.1 380.2 311.5Q379.7 310.9 379.6 309.6H379.5Q378.7 311 377.7 311.6Q376.6 312.2 375 312.2ZM375.5 310.7Q376.7 310.7 377.6 310.1Q378.5 309.6 379 308.7Q379.5 307.8 379.5 306.8V305.7L377.2 305.8Q375.7 305.8 375 306.1Q374.2 306.4 373.8 307Q373.4 307.5 373.4 308.5Q373.4 309.5 373.9 310.1Q374.5 310.7 375.5 310.7Z M386.8 305.6Q386.8 308.1 387.6 309.4Q388.4 310.6 390 310.6Q391.1 310.6 391.8 310Q392.6 309.4 392.8 308.1L394.9 308.2Q394.7 310.1 393.3 311.1Q392 312.2 390 312.2Q387.4 312.2 386 310.6Q384.6 308.9 384.6 305.6Q384.6 302.4 386 300.8Q387.4 299.1 390 299.1Q391.9 299.1 393.2 300.1Q394.5 301.1 394.8 302.9L392.7 303Q392.5 302 391.8 301.4Q391.2 300.7 389.9 300.7Q388.3 300.7 387.5 301.9Q386.8 303 386.8 305.6Z M405.1 312 400.8 306.2 399.3 307.5V312H397.2V294.6H399.3V305.5L404.8 299.3H407.3L402.2 304.8L407.6 312Z" fill="#e3efe8"/><line x1="48" y1="364" x2="732" y2="364" stroke="#1f4d3a" stroke-width="2"/><path transform="translate(48.0 387.4) scale(1.216)" d="M14.23 12.004a2.236 2.236 0 0 1-2.235 2.236 2.236 2.236 0 0 1-2.236-2.236 2.236 2.236 0 0 1 2.235-2.236 2.236 2.236 0 0 1 2.236 2.236zm2.648-10.69c-1.346 0-3.107.96-4.888 2.622-1.78-1.653-3.542-2.602-4.887-2.602-.41 0-.783.093-1.106.278-1.375.793-1.683 3.264-.973 6.365C1.98 8.917 0 10.42 0 12.004c0 1.59 1.99 3.097 5.043 4.03-.704 3.113-.39 5.588.988 6.38.32.187.69.275 1.102.275 1.345 0 3.107-.96 4.888-2.624 1.78 1.654 3.542 2.603 4.887 2.603.41 0 .783-.09 1.106-.275 1.374-.792 1.683-3.263.973-6.365C22.02 15.096 24 13.59 24 12.004c0-1.59-1.99-3.097-5.043-4.032.704-3.11.39-5.587-.988-6.38-.318-.184-.688-.277-1.092-.278zm-.005 1.09v.006c.225 0 .406.044.558.127.666.382.955 1.835.73 3.704-.054.46-.142.945-.25 1.44-.96-.236-2.006-.417-3.107-.534-.66-.905-1.345-1.727-2.035-2.447 1.592-1.48 3.087-2.292 4.105-2.295zm-9.77.02c1.012 0 2.514.808 4.11 2.28-.686.72-1.37 1.537-2.02 2.442-1.107.117-2.154.298-3.113.538-.112-.49-.195-.964-.254-1.42-.23-1.868.054-3.32.714-3.707.19-.09.4-.127.563-.132zm4.882 3.05c.455.468.91.992 1.36 1.564-.44-.02-.89-.034-1.345-.034-.46 0-.915.01-1.36.034.44-.572.895-1.096 1.345-1.565zM12 8.1c.74 0 1.477.034 2.202.093.406.582.802 1.203 1.183 1.86.372.64.71 1.29 1.018 1.946-.308.655-.646 1.31-1.013 1.95-.38.66-.773 1.288-1.18 1.87-.728.063-1.466.098-2.21.098-.74 0-1.477-.035-2.202-.093-.406-.582-.802-1.204-1.183-1.86-.372-.64-.71-1.29-1.018-1.946.303-.657.646-1.313 1.013-1.954.38-.66.773-1.286 1.18-1.868.728-.064 1.466-.098 2.21-.098zm-3.635.254c-.24.377-.48.763-.704 1.16-.225.39-.435.782-.635 1.174-.265-.656-.49-1.31-.676-1.947.64-.15 1.315-.283 2.015-.386zm7.26 0c.695.103 1.365.23 2.006.387-.18.632-.405 1.282-.66 1.933-.2-.39-.41-.783-.64-1.174-.225-.392-.465-.774-.705-1.146zm3.063.675c.484.15.944.317 1.375.498 1.732.74 2.852 1.708 2.852 2.476-.005.768-1.125 1.74-2.857 2.475-.42.18-.88.342-1.355.493-.28-.958-.646-1.956-1.1-2.98.45-1.017.81-2.01 1.085-2.964zm-13.395.004c.278.96.645 1.957 1.1 2.98-.45 1.017-.812 2.01-1.086 2.964-.484-.15-.944-.318-1.37-.5-1.732-.737-2.852-1.706-2.852-2.474 0-.768 1.12-1.742 2.852-2.476.42-.18.88-.342 1.356-.494zm11.678 4.28c.265.657.49 1.312.676 1.948-.64.157-1.316.29-2.016.39.24-.375.48-.762.705-1.158.225-.39.435-.788.636-1.18zm-9.945.02c.2.392.41.783.64 1.175.23.39.465.772.705 1.143-.695-.102-1.365-.23-2.006-.386.18-.63.406-1.282.66-1.933zM17.92 16.32c.112.493.2.968.254 1.423.23 1.868-.054 3.32-.714 3.708-.147.09-.338.128-.563.128-1.012 0-2.514-.807-4.11-2.28.686-.72 1.37-1.536 2.02-2.44 1.107-.118 2.154-.3 3.113-.54zm-11.83.01c.96.234 2.006.415 3.107.532.66.905 1.345 1.727 2.035 2.446-1.595 1.483-3.092 2.295-4.11 2.295-.22-.005-.406-.05-.553-.132-.666-.38-.955-1.834-.73-3.703.054-.46.142-.944.25-1.438zm4.56.64c.44.02.89.034 1.345.034.46 0 .915-.01 1.36-.034-.44.572-.895 1.095-1.345 1.565-.455-.47-.91-.993-1.36-1.565z" fill="#61DAFB" fill-rule="evenodd"/><path d="M97 409 93.8 403.8H90.4V409H87.5V395.2H94.4Q96.9 395.2 98.2 396.3Q99.5 397.4 99.5 399.3Q99.5 400.8 98.7 401.8Q97.9 402.9 96.5 403.2L100.2 409ZM96.6 399.5Q96.6 397.5 94.1 397.5H90.4V401.5H94.2Q95.4 401.5 96 401Q96.6 400.4 96.6 399.5Z M106.4 409.2Q104 409.2 102.7 407.8Q101.4 406.4 101.4 403.7Q101.4 401.1 102.7 399.6Q104 398.2 106.4 398.2Q108.7 398.2 109.9 399.7Q111.1 401.3 111.1 404.2V404.2H104.3Q104.3 405.8 104.9 406.6Q105.4 407.4 106.5 407.4Q108 407.4 108.3 406.1L110.9 406.3Q109.8 409.2 106.4 409.2ZM106.4 400Q105.4 400 104.9 400.6Q104.3 401.3 104.3 402.5H108.4Q108.3 401.2 107.8 400.6Q107.3 400 106.4 400Z M115.6 409.2Q114.1 409.2 113.2 408.4Q112.3 407.5 112.3 406Q112.3 404.4 113.4 403.5Q114.5 402.7 116.5 402.6L118.8 402.6V402.1Q118.8 401 118.4 400.5Q118.1 400 117.2 400Q116.5 400 116.1 400.4Q115.8 400.7 115.7 401.5L112.8 401.4Q113.1 399.8 114.2 399Q115.4 398.2 117.4 398.2Q119.4 398.2 120.5 399.2Q121.5 400.2 121.5 402V405.9Q121.5 406.8 121.7 407.1Q121.9 407.4 122.4 407.4Q122.7 407.4 123 407.4V408.9Q122.8 408.9 122.6 409Q122.4 409 122.2 409Q122 409.1 121.8 409.1Q121.5 409.1 121.3 409.1Q120.2 409.1 119.7 408.6Q119.2 408.1 119.1 407.1H119.1Q117.9 409.2 115.6 409.2ZM118.8 404.1 117.4 404.1Q116.4 404.2 116 404.3Q115.6 404.5 115.4 404.9Q115.2 405.2 115.2 405.8Q115.2 406.5 115.6 406.9Q115.9 407.3 116.5 407.3Q117.1 407.3 117.7 406.9Q118.2 406.6 118.5 406Q118.8 405.3 118.8 404.6Z M128.7 409.2Q126.3 409.2 125 407.8Q123.7 406.3 123.7 403.8Q123.7 401.2 125 399.7Q126.3 398.2 128.7 398.2Q130.6 398.2 131.8 399.2Q133 400.1 133.3 401.8L130.6 401.9Q130.5 401.1 130 400.6Q129.5 400.1 128.7 400.1Q126.5 400.1 126.5 403.7Q126.5 407.3 128.7 407.3Q129.5 407.3 130 406.8Q130.5 406.3 130.7 405.4L133.4 405.5Q133.3 406.6 132.6 407.4Q132 408.3 131 408.7Q130 409.2 128.7 409.2Z M138.1 409.2Q136.9 409.2 136.2 408.5Q135.6 407.9 135.6 406.5V400.3H134.2V398.4H135.7L136.6 396H138.3V398.4H140.3V400.3H138.3V405.8Q138.3 406.5 138.6 406.9Q138.9 407.3 139.5 407.3Q139.8 407.3 140.4 407.1V408.8Q139.4 409.2 138.1 409.2Z" fill="#cfe3d8"/><path transform="translate(166.7 388.4) scale(1.134)" d="M13.056 23.238a.57.57 0 0 1-1.02-.355v-5.202c0-.63-.512-1.143-1.144-1.143H5.148a.57.57 0 0 1-.464-.903l3.777-5.29c.54-.753 0-1.804-.93-1.804H.57a.574.574 0 0 1-.543-.746.6.6 0 0 1 .08-.157L5.008.78a.57.57 0 0 1 .467-.24h14.589a.57.57 0 0 1 .466.903l-3.778 5.29c-.54.755 0 1.806.93 1.806h5.745c.238 0 .424.138.513.322a.56.56 0 0 1-.063.603z" fill="#9135FF" fill-rule="evenodd"/><path d="M211 409H208.1L203 395.2H206L208.9 404.1Q209.1 404.9 209.6 406.7L209.8 405.8L210.3 404.1L213.1 395.2H216.1Z M217.3 396.5V394.5H220V396.5ZM217.3 409V398.4H220V409Z M225.5 409.2Q224.3 409.2 223.7 408.5Q223 407.9 223 406.5V400.3H221.7V398.4H223.1L224 396H225.7V398.4H227.7V400.3H225.7V405.8Q225.7 406.5 226 406.9Q226.3 407.3 226.9 407.3Q227.2 407.3 227.8 407.1V408.8Q226.8 409.2 225.5 409.2Z M233.8 409.2Q231.4 409.2 230.1 407.8Q228.9 406.4 228.9 403.7Q228.9 401.1 230.2 399.6Q231.5 398.2 233.8 398.2Q236.1 398.2 237.3 399.7Q238.5 401.3 238.5 404.2V404.2H231.7Q231.7 405.8 232.3 406.6Q232.9 407.4 233.9 407.4Q235.4 407.4 235.8 406.1L238.4 406.3Q237.2 409.2 233.8 409.2ZM233.8 400Q232.8 400 232.3 400.6Q231.8 401.3 231.8 402.5H235.9Q235.8 401.2 235.3 400.6Q234.7 400 233.8 400Z" fill="#cfe3d8"/><path transform="translate(265.2 385.1) scale(1.408)" d="M12.001,4.8c-3.2,0-5.2,1.6-6,4.8c1.2-1.6,2.6-2.2,4.2-1.8c0.913,0.228,1.565,0.89,2.288,1.624 C13.666,10.618,15.027,12,18.001,12c3.2,0,5.2-1.6,6-4.8c-1.2,1.6-2.6,2.2-4.2,1.8c-0.913-0.228-1.565-0.89-2.288-1.624 C16.337,6.182,14.976,4.8,12.001,4.8z M6.001,12c-3.2,0-5.2,1.6-6,4.8c1.2-1.6,2.6-2.2,4.2-1.8c0.913,0.228,1.565,0.89,2.288,1.624 c1.177,1.194,2.538,2.576,5.512,2.576c3.2,0,5.2-1.6,6-4.8c-1.2,1.6-2.6,2.2-4.2,1.8c-0.913-0.228-1.565-0.89-2.288-1.624 C10.337,13.382,8.976,12,6.001,12z" fill="#06B6D4" fill-rule="evenodd"/><path d="M315.6 397.5V409H312.7V397.5H308.2V395.2H320V397.5Z M322.6 409.2Q321 409.2 320.2 408.4Q319.3 407.5 319.3 406Q319.3 404.4 320.4 403.5Q321.5 402.7 323.5 402.6L325.8 402.6V402.1Q325.8 401 325.4 400.5Q325.1 400 324.2 400Q323.5 400 323.1 400.4Q322.8 400.7 322.7 401.5L319.8 401.4Q320.1 399.8 321.2 399Q322.4 398.2 324.3 398.2Q326.4 398.2 327.4 399.2Q328.5 400.2 328.5 402V405.9Q328.5 406.8 328.7 407.1Q328.9 407.4 329.4 407.4Q329.7 407.4 330 407.4V408.9Q329.7 408.9 329.6 409Q329.4 409 329.2 409Q329 409.1 328.7 409.1Q328.5 409.1 328.2 409.1Q327.2 409.1 326.7 408.6Q326.2 408.1 326.1 407.1H326.1Q324.9 409.2 322.6 409.2ZM325.8 404.1 324.4 404.1Q323.4 404.2 323 404.3Q322.6 404.5 322.4 404.9Q322.2 405.2 322.2 405.8Q322.2 406.5 322.5 406.9Q322.9 407.3 323.5 407.3Q324.1 407.3 324.6 406.9Q325.2 406.6 325.5 406Q325.8 405.3 325.8 404.6Z M331.3 396.5V394.5H334V396.5ZM331.3 409V398.4H334V409Z M336.8 409V394.5H339.6V409Z M353.8 409H350.9L349.2 402.6Q349.1 402.1 348.8 400.4L348.3 402.6L346.6 409H343.7L340.9 398.4H343.5L345.2 406.5L345.4 405.8L345.6 404.6L347.3 398.4H350.2L351.8 404.6Q352 405.2 352.2 406.5L352.5 405.2L354 398.4H356.6Z M357.9 396.5V394.5H360.7V396.5ZM357.9 409V398.4H360.7V409Z M370.3 409V403.1Q370.3 400.3 368.5 400.3Q367.5 400.3 366.8 401.1Q366.2 402 366.2 403.3V409H363.5V400.8Q363.5 399.9 363.5 399.4Q363.4 398.9 363.4 398.4H366Q366.1 398.6 366.1 399.4Q366.2 400.2 366.2 400.5H366.2Q366.8 399.3 367.6 398.8Q368.4 398.2 369.6 398.2Q371.3 398.2 372.2 399.3Q373.1 400.3 373.1 402.3V409Z M382.6 409Q382.5 408.9 382.5 408.3Q382.4 407.7 382.4 407.3H382.4Q381.5 409.2 379 409.2Q377.1 409.2 376.1 407.8Q375.1 406.3 375.1 403.7Q375.1 401.1 376.2 399.7Q377.2 398.2 379.2 398.2Q380.3 398.2 381.1 398.7Q381.9 399.2 382.4 400.1H382.4L382.4 398.4V394.5H385.1V406.7Q385.1 407.7 385.2 409ZM382.4 403.7Q382.4 401.9 381.9 401Q381.3 400.1 380.2 400.1Q379.1 400.1 378.5 401Q378 401.9 378 403.7Q378 407.3 380.1 407.3Q381.2 407.3 381.8 406.4Q382.4 405.4 382.4 403.7Z M399.8 406.9Q402.5 406.9 403.5 404.3L406 405.3Q405.2 407.3 403.6 408.2Q402 409.2 399.8 409.2Q396.5 409.2 394.7 407.3Q392.9 405.4 392.9 402.1Q392.9 398.7 394.7 396.9Q396.4 395 399.7 395Q402.1 395 403.7 396Q405.2 397 405.8 398.9L403.3 399.6Q402.9 398.5 402 397.9Q401.1 397.3 399.8 397.3Q397.8 397.3 396.8 398.5Q395.8 399.7 395.8 402.1Q395.8 404.4 396.8 405.7Q397.9 406.9 399.8 406.9Z M419.1 405Q419.1 407.1 417.6 408.1Q416.1 409.2 413.2 409.2Q410.5 409.2 409 408.3Q407.5 407.3 407.1 405.4L409.9 405Q410.2 406.1 411 406.5Q411.8 407 413.3 407Q416.3 407 416.3 405.2Q416.3 404.6 415.9 404.2Q415.6 403.9 415 403.6Q414.3 403.3 412.5 403Q411 402.6 410.4 402.4Q409.8 402.2 409.3 401.9Q408.8 401.6 408.5 401.2Q408.1 400.7 407.9 400.2Q407.7 399.6 407.7 398.9Q407.7 397 409.1 396Q410.5 395 413.2 395Q415.8 395 417.1 395.8Q418.4 396.6 418.7 398.5L415.9 398.9Q415.7 398 415.1 397.5Q414.4 397.1 413.2 397.1Q410.5 397.1 410.5 398.7Q410.5 399.3 410.8 399.6Q411.1 399.9 411.7 400.2Q412.2 400.4 413.9 400.8Q415.9 401.2 416.7 401.6Q417.6 401.9 418.1 402.4Q418.6 402.9 418.8 403.5Q419.1 404.2 419.1 405Z M432.4 405Q432.4 407.1 430.9 408.1Q429.4 409.2 426.5 409.2Q423.9 409.2 422.4 408.3Q420.9 407.3 420.4 405.4L423.2 405Q423.5 406.1 424.3 406.5Q425.1 407 426.6 407Q429.6 407 429.6 405.2Q429.6 404.6 429.3 404.2Q428.9 403.9 428.3 403.6Q427.7 403.3 425.9 403Q424.3 402.6 423.7 402.4Q423.1 402.2 422.6 401.9Q422.2 401.6 421.8 401.2Q421.5 400.7 421.3 400.2Q421.1 399.6 421.1 398.9Q421.1 397 422.5 396Q423.9 395 426.6 395Q429.1 395 430.4 395.8Q431.7 396.6 432.1 398.5L429.3 398.9Q429.1 398 428.4 397.5Q427.7 397.1 426.5 397.1Q423.9 397.1 423.9 398.7Q423.9 399.3 424.2 399.6Q424.4 399.9 425 400.2Q425.5 400.4 427.2 400.8Q429.2 401.2 430 401.6Q430.9 401.9 431.4 402.4Q431.9 402.9 432.2 403.5Q432.4 404.2 432.4 405Z" fill="#cfe3d8"/><path transform="translate(459.2 389.0) scale(1.083)" d="M12 0c-1.56 0-3.137.721-4.095 2.122a5 5 0 0 0-.857-.081c-1.353-.006-2.62.565-3.53 1.476C2.415 4.62 1.81 6.241 2.121 7.905.722 8.863 0 10.44 0 12s.721 3.137 2.122 4.095c-.31 1.664.294 3.286 1.395 4.388 1.102 1.101 2.724 1.706 4.388 1.395C8.863 23.278 10.44 24 12 24s3.137-.721 4.095-2.122c1.664.31 3.286-.294 4.388-1.395 1.101-1.102 1.706-2.724 1.395-4.388C23.278 15.137 24 13.56 24 12s-.721-3.137-2.122-4.095c.31-1.664-.294-3.286-1.395-4.388-1.102-1.101-2.724-1.706-4.388-1.395C15.137.722 13.56 0 12 0m0 .962c1.18 0 2.345.471 3.123 1.447a5 5 0 0 0-.64.315 4.97 4.97 0 0 1-4.965 0 5 5 0 0 0-.64-.315C9.654 1.433 10.82.962 12 .962M7.026 2.99q.196 0 .397.023a5 5 0 0 0-.229.67 4.97 4.97 0 0 1-3.511 3.511 5 5 0 0 0-.67.229c-.138-1.238.352-2.393 1.185-3.225.743-.743 1.742-1.214 2.828-1.208m10.011 0c1.062.013 2.037.479 2.765 1.208.833.832 1.323 1.987 1.185 3.225a5 5 0 0 0-.67-.229 4.97 4.97 0 0 1-3.511-3.511 5 5 0 0 0-.229-.67 4 4 0 0 1 .46-.023m-8.667.252q.333.124.668.315a5.94 5.94 0 0 0 5.924 0q.335-.191.668-.315a4.5 4.5 0 0 1 .247.69 5.94 5.94 0 0 0 4.19 4.191q.37.101.691.247a4.5 4.5 0 0 1-.315.668 5.94 5.94 0 0 0 0 5.924q.191.335.315.668a4.5 4.5 0 0 1-.69.247 5.94 5.94 0 0 0-4.191 4.19q-.101.37-.247.691a4.5 4.5 0 0 1-.668-.315 5.94 5.94 0 0 0-5.924 0 4.5 4.5 0 0 1-.668.315 4.5 4.5 0 0 1-.247-.69 5.94 5.94 0 0 0-4.19-4.191 4.5 4.5 0 0 1-.691-.247q.124-.333.315-.668a5.94 5.94 0 0 0 0-5.924 4.5 4.5 0 0 1-.315-.668q.322-.146.69-.247a5.94 5.94 0 0 0 4.191-4.19q.101-.37.247-.691M2.41 8.877q.13.323.314.64a4.97 4.97 0 0 1 0 4.965 5 5 0 0 0-.315.64C1.433 14.346.962 13.18.962 12s.471-2.345 1.447-3.123m19.18 0c.977.778 1.448 1.943 1.448 3.123s-.471 2.345-1.447 3.123a5 5 0 0 0-.315-.64 4.97 4.97 0 0 1 0-4.965q.183-.319.315-.64m-14.907 1.57a.417.417 0 0 0-.296.714l.117.117c-.13.228-.203.492-.203.774 0 .87.7 1.569 1.569 1.569s1.568-.7 1.568-1.569-.7-1.568-1.568-1.568c-.282 0-.546.073-.775.203l-.116-.117a.42.42 0 0 0-.296-.123m10.748 0a.42.42 0 0 0-.295.123l-.12.12a1.57 1.57 0 0 0-.781-.206c-.869 0-1.569.7-1.569 1.568 0 .87.7 1.569 1.569 1.569s1.569-.7 1.569-1.569c0-.279-.073-.54-.2-.767l.123-.123a.417.417 0 0 0-.296-.715m-9.904.237a.627.627 0 0 1 .627.627.627.627 0 0 1-.627.627.627.627 0 0 1-.628-.627.627.627 0 0 1 .628-.627m8.365 0a.627.627 0 0 1 .628.627.627.627 0 0 1-.628.627.627.627 0 0 1-.627-.627.627.627 0 0 1 .627-.627m-7.187 1.17a.314.314 0 0 1 .313.314.314.314 0 0 1-.313.314.314.314 0 0 1-.314-.314.314.314 0 0 1 .314-.314m8.365 0a.314.314 0 0 1 .314.314.314.314 0 0 1-.314.314.314.314 0 0 1-.314-.314.314.314 0 0 1 .314-.314m-8.757.758a.21.21 0 0 1 .21.209.21.21 0 0 1-.21.209.21.21 0 0 1-.21-.21.21.21 0 0 1 .21-.208m8.366 0a.21.21 0 0 1 .209.209.21.21 0 0 1-.21.209.21.21 0 0 1-.209-.21.21.21 0 0 1 .21-.208m-5.551.48a.32.32 0 0 0-.232.082.32.32 0 0 0-.023.453c.296.328.737.524 1.18.524.441 0 .882-.196 1.178-.524a.32.32 0 0 0-.023-.453.32.32 0 0 0-.453.023c-.145.16-.486.312-.703.312s-.558-.152-.703-.312a.32.32 0 0 0-.221-.106m-8.115 3.485q.319.134.67.229a4.97 4.97 0 0 1 3.511 3.511q.095.351.229.67c-1.238.138-2.393-.352-3.225-1.185-.833-.832-1.323-1.987-1.185-3.225m17.974 0c.138 1.238-.352 2.393-1.185 3.225-.832.833-1.987 1.323-3.225 1.185a5 5 0 0 0 .229-.67 4.97 4.97 0 0 1 3.511-3.511 5 5 0 0 0 .67-.229M12 20.612c.857 0 1.714.222 2.482.664q.318.183.64.315c-.777.976-1.942 1.447-3.122 1.447s-2.345-.471-3.123-1.447q.323-.132.64-.315A5 5 0 0 1 12 20.612" fill="#FFC63A" fill-rule="evenodd"/><path d="M502.4 409Q502.4 408.9 502.4 408.3Q502.3 407.7 502.3 407.3H502.3Q501.4 409.2 498.9 409.2Q497 409.2 496 407.8Q495 406.3 495 403.7Q495 401.1 496.1 399.7Q497.1 398.2 499.1 398.2Q500.2 398.2 501 398.7Q501.8 399.2 502.3 400.1H502.3L502.3 398.4V394.5H505V406.7Q505 407.7 505.1 409ZM502.3 403.7Q502.3 401.9 501.8 401Q501.2 400.1 500.1 400.1Q499 400.1 498.4 401Q497.9 401.9 497.9 403.7Q497.9 407.3 500 407.3Q501.1 407.3 501.7 406.4Q502.3 405.4 502.3 403.7Z M510.3 409.2Q508.7 409.2 507.9 408.4Q507 407.5 507 406Q507 404.4 508.1 403.5Q509.1 402.7 511.2 402.6L513.5 402.6V402.1Q513.5 401 513.1 400.5Q512.7 400 511.9 400Q511.1 400 510.8 400.4Q510.4 400.7 510.3 401.5L507.5 401.4Q507.8 399.8 508.9 399Q510 398.2 512 398.2Q514 398.2 515.1 399.2Q516.2 400.2 516.2 402V405.9Q516.2 406.8 516.4 407.1Q516.6 407.4 517.1 407.4Q517.4 407.4 517.7 407.4V408.9Q517.4 408.9 517.2 409Q517 409 516.8 409Q516.6 409.1 516.4 409.1Q516.2 409.1 515.9 409.1Q514.9 409.1 514.4 408.6Q513.9 408.1 513.8 407.1H513.7Q512.6 409.2 510.3 409.2ZM513.5 404.1 512 404.1Q511.1 404.2 510.7 404.3Q510.3 404.5 510.1 404.9Q509.9 405.2 509.9 405.8Q509.9 406.5 510.2 406.9Q510.6 407.3 511.1 407.3Q511.8 407.3 512.3 406.9Q512.8 406.6 513.2 406Q513.5 405.3 513.5 404.6Z M518.9 396.5V394.5H521.7V396.5ZM518.9 409V398.4H521.7V409Z M533.4 405.9Q533.4 407.4 532.2 408.3Q530.9 409.2 528.7 409.2Q526.5 409.2 525.3 408.5Q524.2 407.8 523.8 406.4L526.2 406Q526.4 406.8 526.9 407.1Q527.4 407.4 528.7 407.4Q529.8 407.4 530.4 407.1Q530.9 406.8 530.9 406.2Q530.9 405.7 530.5 405.4Q530 405.1 529 404.9Q526.7 404.4 525.9 404Q525.1 403.6 524.7 403Q524.2 402.3 524.2 401.4Q524.2 399.9 525.4 399.1Q526.6 398.2 528.7 398.2Q530.6 398.2 531.7 399Q532.9 399.7 533.2 401.1L530.7 401.3Q530.6 400.7 530.2 400.4Q529.7 400.1 528.7 400.1Q527.7 400.1 527.2 400.3Q526.7 400.6 526.7 401.1Q526.7 401.6 527.1 401.9Q527.5 402.1 528.4 402.3Q529.6 402.6 530.6 402.8Q531.5 403.1 532.1 403.5Q532.7 403.8 533.1 404.4Q533.4 405 533.4 405.9Z M537 413.2Q536 413.2 535.3 413V411.1Q535.8 411.1 536.2 411.1Q536.8 411.1 537.2 411Q537.6 410.8 537.9 410.3Q538.2 409.9 538.6 408.9L534.4 398.4H537.3L538.9 403.4Q539.3 404.4 539.9 406.6L540.2 405.7L540.8 403.4L542.4 398.4H545.2L541.1 409.6Q540.2 411.6 539.3 412.4Q538.4 413.2 537 413.2Z M552.4 409.2Q549.6 409.2 548.1 407.8Q546.5 406.4 546.5 403.8V395.2H549.4V403.6Q549.4 405.2 550.2 406.1Q551 406.9 552.5 406.9Q554 406.9 554.9 406.1Q555.7 405.2 555.7 403.5V395.2H558.6V403.7Q558.6 406.3 557 407.8Q555.3 409.2 552.4 409.2Z M561.1 409V395.2H564V409Z" fill="#cfe3d8"/>
  </g>
  <rect x="1" y="1" width="778" height="458" rx="25" fill="none" stroke="#2c6e52" stroke-width="2"/>
</svg>
